<svg width="661" height="87" viewBox="0 0 661 87" fill="none" xmlns="http://www.w3.org/2000/svg">
<g filter="url(#filter0_dd_11_53)">
<path d="M42.512 78.344C34.704 78.344 27.952 76.68 22.256 73.352C16.624 70.024 12.336 65.448 9.392 59.624C6.448 53.736 4.976 47.048 4.976 39.56C4.976 31.816 6.448 25.032 9.392 19.208C12.336 13.384 16.624 8.904 22.256 5.768C27.888 2.568 34.64 0.967995 42.512 0.967995C50.384 0.967995 57.136 2.568 62.768 5.768C68.4 8.904 72.688 13.384 75.632 19.208C78.576 25.032 80.048 31.816 80.048 39.56C80.048 47.048 78.576 53.736 75.632 59.624C72.688 65.448 68.368 70.024 62.672 73.352C57.04 76.68 50.32 78.344 42.512 78.344ZM42.512 61.736C45.904 61.736 48.496 59.688 50.288 55.592C52.08 51.496 52.976 46.024 52.976 39.176C52.976 32.52 52.112 27.272 50.384 23.432C48.656 19.528 46.032 17.576 42.512 17.576C38.992 17.576 36.368 19.528 34.64 23.432C32.912 27.272 32.048 32.52 32.048 39.176C32.048 46.024 32.944 51.496 34.736 55.592C36.528 59.688 39.12 61.736 42.512 61.736ZM143.907 78.344C140.067 78.344 136.995 77.896 134.691 77C132.451 76.168 130.019 74.728 127.395 72.68L125.763 77H110.595V54.152H125.667C126.627 56.776 128.099 58.632 130.083 59.72C132.131 60.808 134.627 61.352 137.571 61.352C139.363 61.352 140.899 61 142.179 60.296C143.459 59.528 144.099 58.536 144.099 57.32C144.099 55.784 143.427 54.632 142.083 53.864C140.803 53.096 138.979 52.392 136.611 51.752C130.595 50.088 125.635 48.296 121.731 46.376C117.891 44.456 114.787 41.704 112.419 38.12C110.051 34.536 108.867 29.8 108.867 23.912C108.867 19.368 109.827 15.368 111.747 11.912C113.731 8.456 116.547 5.768 120.195 3.848C123.843 1.928 128.131 0.967995 133.059 0.967995C139.075 0.967995 143.843 2.88799 147.363 6.72799L149.763 2.31199H163.203V24.68H148.803C147.459 21.864 145.955 19.912 144.291 18.824C142.691 17.736 140.483 17.192 137.667 17.192C135.491 17.192 133.795 17.576 132.579 18.344C131.427 19.112 130.851 20.168 130.851 21.512C130.851 22.984 131.683 24.136 133.347 24.968C135.075 25.736 137.507 26.472 140.643 27.176C146.211 28.456 150.915 30.056 154.755 31.976C158.659 33.832 161.763 36.52 164.067 40.04C166.435 43.496 167.619 47.976 167.619 53.48C167.619 58.152 166.627 62.376 164.643 66.152C162.723 69.928 159.939 72.904 156.291 75.08C152.707 77.256 148.579 78.344 143.907 78.344ZM211.637 78.344C203.829 78.344 197.077 76.68 191.381 73.352C185.749 70.024 181.461 65.448 178.517 59.624C175.573 53.736 174.101 47.048 174.101 39.56C174.101 31.816 175.573 25.032 178.517 19.208C181.461 13.384 185.749 8.904 191.381 5.768C197.013 2.568 203.765 0.967995 211.637 0.967995C219.509 0.967995 226.261 2.568 231.893 5.768C237.525 8.904 241.813 13.384 244.757 19.208C247.701 25.032 249.173 31.816 249.173 39.56C249.173 47.048 247.701 53.736 244.757 59.624C241.813 65.448 237.493 70.024 231.797 73.352C226.165 76.68 219.445 78.344 211.637 78.344ZM211.637 61.736C215.029 61.736 217.621 59.688 219.413 55.592C221.205 51.496 222.101 46.024 222.101 39.176C222.101 32.52 221.237 27.272 219.509 23.432C217.781 19.528 215.157 17.576 211.637 17.576C208.117 17.576 205.493 19.528 203.765 23.432C202.037 27.272 201.173 32.52 201.173 39.176C201.173 46.024 202.069 51.496 203.861 55.592C205.653 59.688 208.245 61.736 211.637 61.736ZM260.611 60.488H268.099V18.92H260.611V2.408H308.515C316.259 2.408 321.955 3.976 325.603 7.112C329.251 10.248 331.075 15.432 331.075 22.664C331.075 27.528 329.699 31.272 326.947 33.896C324.259 36.52 320.419 38.28 315.427 39.176C319.907 39.88 323.139 41.576 325.123 44.264C327.107 46.888 328.099 50.184 328.099 54.152V60.2H338.563V77H323.491C318.627 77 315.139 76.68 313.027 76.04C310.915 75.4 309.283 73.64 308.131 70.76C307.043 67.88 306.499 63.08 306.499 56.36C306.499 52.52 305.859 49.672 304.579 47.816C303.363 45.96 301.091 45.032 297.763 45.032H292.099V60.488H299.587V77H260.611V60.488ZM298.531 34.376C301.923 34.376 304.451 33.768 306.115 32.552C307.779 31.336 308.611 29.192 308.611 26.12C308.611 23.88 307.747 22.12 306.019 20.84C304.355 19.56 302.179 18.92 299.491 18.92H292.099V34.376H298.531ZM355.088 77V60.104H362.768V18.92H356.144L354.128 31.784H340.976V2.408H411.152V31.784H398L395.984 18.92H389.168V60.104H396.848V77H355.088ZM455.584 78.344C444.448 78.344 436.416 75.432 431.488 69.608C426.624 63.784 424.192 55.24 424.192 43.976V18.92H416.608V2.408H457.312V18.92H450.4V50.312C450.4 53.384 451.136 55.912 452.608 57.896C454.144 59.816 456.512 60.776 459.712 60.776C462.4 60.776 464.512 59.976 466.048 58.376C467.648 56.776 468.448 54.6 468.448 51.848V18.92H460.768V2.408H491.392V18.92H484.192V51.176C484.192 60.136 481.568 66.92 476.32 71.528C471.072 76.072 464.16 78.344 455.584 78.344ZM496.976 60.488H504.464V18.92H496.976V2.408H531.536C545.104 2.408 555.472 5.544 562.64 11.816C569.872 18.088 573.488 27.368 573.488 39.656C573.488 51.624 569.904 60.84 562.736 67.304C555.568 73.768 545.136 77 531.44 77H496.976V60.488ZM531.44 60.488C536.688 60.488 540.496 58.536 542.864 54.632C545.296 50.664 546.512 45.672 546.512 39.656C546.512 33.512 545.328 28.52 542.96 24.68C540.592 20.84 536.752 18.92 531.44 18.92H528.464V60.488H531.44ZM619.075 78.344C611.267 78.344 604.515 76.68 598.819 73.352C593.187 70.024 588.899 65.448 585.955 59.624C583.011 53.736 581.539 47.048 581.539 39.56C581.539 31.816 583.011 25.032 585.955 19.208C588.899 13.384 593.187 8.904 598.819 5.768C604.451 2.568 611.203 0.967995 619.075 0.967995C626.947 0.967995 633.699 2.568 639.331 5.768C644.963 8.904 649.251 13.384 652.195 19.208C655.139 25.032 656.611 31.816 656.611 39.56C656.611 47.048 655.139 53.736 652.195 59.624C649.251 65.448 644.931 70.024 639.235 73.352C633.603 76.68 626.883 78.344 619.075 78.344ZM619.075 61.736C622.467 61.736 625.059 59.688 626.851 55.592C628.643 51.496 629.539 46.024 629.539 39.176C629.539 32.52 628.675 27.272 626.947 23.432C625.219 19.528 622.595 17.576 619.075 17.576C615.555 17.576 612.931 19.528 611.203 23.432C609.475 27.272 608.611 32.52 608.611 39.176C608.611 46.024 609.507 51.496 611.299 55.592C613.091 59.688 615.683 61.736 619.075 61.736Z" fill="#32397D"/>
<path d="M22.256 73.352L21.7473 74.2129L21.7515 74.2154L22.256 73.352ZM9.392 59.624L8.49756 60.0712L8.49954 60.0751L9.392 59.624ZM9.392 19.208L8.49954 18.7569L8.49954 18.7569L9.392 19.208ZM22.256 5.768L22.7425 6.64172L22.75 6.63745L22.256 5.768ZM62.768 5.768L62.274 6.63748L62.2815 6.64168L62.768 5.768ZM75.632 19.208L76.5245 18.7569L76.5245 18.7569L75.632 19.208ZM75.632 59.624L76.5245 60.0751L76.5264 60.0712L75.632 59.624ZM62.672 73.352L62.1675 72.4886L62.1633 72.4911L62.672 73.352ZM50.384 23.432L49.4696 23.8368L49.4721 23.8424L50.384 23.432ZM34.64 23.432L35.5519 23.8424L35.5544 23.8367L34.64 23.432ZM42.512 77.344C34.8485 77.344 28.2774 75.7119 22.7605 72.4886L21.7515 74.2154C27.6266 77.6481 34.5595 79.344 42.512 79.344V77.344ZM22.7647 72.4911C17.2967 69.26 13.1421 64.826 10.2845 59.1729L8.49954 60.0751C11.5299 66.07 15.9513 70.788 21.7473 74.2129L22.7647 72.4911ZM10.2864 59.1768C7.42086 53.4456 5.976 46.9142 5.976 39.56H3.976C3.976 47.1818 5.47514 54.0264 8.49757 60.0712L10.2864 59.1768ZM5.976 39.56C5.976 31.9436 7.42321 25.3194 10.2845 19.6591L8.49954 18.7569C5.47279 24.7446 3.976 31.6883 3.976 39.56H5.976ZM10.2845 19.6591C13.1395 14.011 17.2873 9.67926 22.7425 6.64168L21.7695 4.89431C15.9608 8.12873 11.5325 12.757 8.49954 18.7569L10.2845 19.6591ZM22.75 6.63745C28.2021 3.53965 34.7761 1.96799 42.512 1.96799V-0.0320053C34.5039 -0.0320053 27.5739 1.59634 21.762 4.89854L22.75 6.63745ZM42.512 1.96799C50.2479 1.96799 56.8219 3.53965 62.274 6.63745L63.262 4.89854C57.4501 1.59634 50.5201 -0.0320053 42.512 -0.0320053V1.96799ZM62.2815 6.64168C67.7368 9.67926 71.8845 14.011 74.7395 19.6591L76.5245 18.7569C73.4916 12.757 69.0633 8.12873 63.2545 4.89431L62.2815 6.64168ZM74.7395 19.6591C77.6008 25.3194 79.048 31.9436 79.048 39.56H81.048C81.048 31.6883 79.5512 24.7446 76.5245 18.7569L74.7395 19.6591ZM79.048 39.56C79.048 46.9142 77.6031 53.4456 74.7376 59.1768L76.5264 60.0712C79.5489 54.0264 81.048 47.1818 81.048 39.56H79.048ZM74.7395 59.1729C71.8835 64.823 67.6991 69.2566 62.1675 72.4886L63.1765 74.2154C69.0369 70.7914 73.4925 66.073 76.5245 60.0751L74.7395 59.1729ZM62.1633 72.4911C56.7128 75.7118 50.1758 77.344 42.512 77.344V79.344C50.4642 79.344 57.3672 77.6482 63.1807 74.2129L62.1633 72.4911ZM42.512 62.736C44.4265 62.736 46.1424 62.1521 47.62 60.9846C49.0821 59.8294 50.2646 58.1404 51.2042 55.9928L49.3718 55.1912C48.5194 57.1396 47.5099 58.5226 46.38 59.4154C45.2656 60.2959 43.9895 60.736 42.512 60.736V62.736ZM51.2042 55.9928C53.0729 51.7214 53.976 46.0959 53.976 39.176H51.976C51.976 45.9521 51.0871 51.2706 49.3718 55.1912L51.2042 55.9928ZM53.976 39.176C53.976 32.4517 53.1059 27.0439 51.2959 23.0216L49.4721 23.8424C51.1181 27.5001 51.976 32.5883 51.976 39.176H53.976ZM51.2984 23.0273C50.3854 20.9644 49.2032 19.3434 47.7169 18.2377C46.2189 17.1233 44.4696 16.576 42.512 16.576V18.576C44.0744 18.576 45.3971 19.0047 46.5231 19.8423C47.6608 20.6886 48.6546 21.9956 49.4696 23.8367L51.2984 23.0273ZM42.512 16.576C40.5544 16.576 38.8051 17.1233 37.3071 18.2377C35.8208 19.3434 34.6386 20.9644 33.7256 23.0273L35.5544 23.8367C36.3694 21.9956 37.3632 20.6886 38.5009 19.8423C39.6269 19.0047 40.9496 18.576 42.512 18.576V16.576ZM33.7281 23.0216C31.9181 27.0439 31.048 32.4517 31.048 39.176H33.048C33.048 32.5883 33.9059 27.5001 35.5519 23.8424L33.7281 23.0216ZM31.048 39.176C31.048 46.0959 31.9511 51.7214 33.8198 55.9928L35.6522 55.1912C33.9369 51.2706 33.048 45.9521 33.048 39.176H31.048ZM33.8198 55.9928C34.7594 58.1404 35.9419 59.8294 37.404 60.9846C38.8816 62.1521 40.5975 62.736 42.512 62.736V60.736C41.0345 60.736 39.7584 60.2959 38.644 59.4154C37.5141 58.5226 36.5046 57.1396 35.6522 55.1912L33.8198 55.9928ZM134.691 77L135.053 76.068L135.046 76.0652L135.039 76.0626L134.691 77ZM127.395 72.68L128.01 71.8917L126.939 71.056L126.459 72.3266L127.395 72.68ZM125.763 77V78H126.454L126.698 77.3534L125.763 77ZM110.595 77H109.595V78H110.595V77ZM110.595 54.152V53.152H109.595V54.152H110.595ZM125.667 54.152L126.606 53.8084L126.366 53.152H125.667V54.152ZM130.083 59.72L129.602 60.5969L129.614 60.6031L130.083 59.72ZM142.179 60.296L142.661 61.1722L142.677 61.1632L142.693 61.1535L142.179 60.296ZM142.083 53.864L141.568 54.7215L141.577 54.727L141.587 54.7322L142.083 53.864ZM136.611 51.752L136.344 52.7158L136.35 52.7174L136.611 51.752ZM121.731 46.376L121.284 47.2704L121.289 47.2733L121.731 46.376ZM112.419 38.12L113.253 37.5687L113.253 37.5687L112.419 38.12ZM111.747 11.912L110.879 11.4141L110.873 11.4264L111.747 11.912ZM120.195 3.848L120.66 4.73292L120.66 4.73292L120.195 3.848ZM147.363 6.72799L146.626 7.40372L147.572 8.43653L148.241 7.20551L147.363 6.72799ZM149.763 2.31199V1.31199H149.168L148.884 1.83448L149.763 2.31199ZM163.203 2.31199H164.203V1.31199H163.203V2.31199ZM163.203 24.68V25.68H164.203V24.68H163.203ZM148.803 24.68L147.9 25.1107L148.172 25.68H148.803V24.68ZM144.291 18.824L143.728 19.6509L143.736 19.656L143.744 19.661L144.291 18.824ZM132.579 18.344L132.045 17.4985L132.034 17.5051L132.024 17.5119L132.579 18.344ZM133.347 24.968L132.9 25.8624L132.92 25.8726L132.941 25.8818L133.347 24.968ZM140.643 27.176L140.867 26.2014L140.862 26.2003L140.643 27.176ZM154.755 31.976L154.308 32.8704L154.316 32.8749L154.325 32.8791L154.755 31.976ZM164.067 40.04L163.23 40.5877L163.236 40.5965L163.242 40.6052L164.067 40.04ZM164.643 66.152L163.757 65.6868L163.751 65.6988L164.643 66.152ZM156.291 75.08L155.778 74.2212L155.772 74.2252L156.291 75.08ZM143.907 77.344C140.13 77.344 137.196 76.9012 135.053 76.068L134.328 77.932C136.794 78.8908 140.004 79.344 143.907 79.344V77.344ZM135.039 76.0626C132.925 75.2772 130.582 73.8994 128.01 71.8917L126.779 73.4683C129.455 75.5566 131.977 77.0588 134.343 77.9374L135.039 76.0626ZM126.459 72.3266L124.827 76.6466L126.698 77.3534L128.33 73.0334L126.459 72.3266ZM125.763 76H110.595V78H125.763V76ZM111.595 77V54.152H109.595V77H111.595ZM110.595 55.152H125.667V53.152H110.595V55.152ZM124.728 54.4956C125.751 57.2914 127.359 59.3668 129.602 60.5968L130.564 58.8432C128.839 57.8972 127.503 56.2606 126.606 53.8084L124.728 54.4956ZM129.614 60.6031C131.84 61.7858 134.506 62.352 137.571 62.352V60.352C134.747 60.352 132.422 59.8302 130.552 58.8369L129.614 60.6031ZM137.571 62.352C139.493 62.352 141.203 61.9739 142.661 61.1722L141.697 59.4198C140.594 60.0261 139.232 60.352 137.571 60.352V62.352ZM142.693 61.1535C144.195 60.2526 145.099 58.9712 145.099 57.32H143.099C143.099 58.1008 142.723 58.8034 141.664 59.4385L142.693 61.1535ZM145.099 57.32C145.099 55.4217 144.231 53.9401 142.579 52.9958L141.587 54.7322C142.622 55.3239 143.099 56.1463 143.099 57.32H145.099ZM142.597 53.0065C141.204 52.1704 139.279 51.4374 136.872 50.7866L136.35 52.7174C138.678 53.3466 140.402 54.0216 141.568 54.7215L142.597 53.0065ZM136.877 50.7882C130.898 49.1343 126.002 47.3621 122.172 45.4786L121.289 47.2733C125.268 49.2299 130.292 51.0417 136.344 52.7158L136.877 50.7882ZM122.178 45.4816C118.495 43.6401 115.524 41.0065 113.253 37.5687L111.584 38.6713C114.049 42.4015 117.287 45.2719 121.284 47.2704L122.178 45.4816ZM113.253 37.5687C111.026 34.1985 109.867 29.6744 109.867 23.912H107.867C107.867 29.9256 109.075 34.8734 111.584 38.6713L113.253 37.5687ZM109.867 23.912C109.867 19.5123 110.795 15.6842 112.621 12.3976L110.873 11.4264C108.858 15.0518 107.867 19.2237 107.867 23.912H109.867ZM112.614 12.4099C114.5 9.12422 117.174 6.56779 120.66 4.73292L119.729 2.96308C115.919 4.9682 112.961 7.78777 110.879 11.4141L112.614 12.4099ZM120.66 4.73292C124.139 2.90194 128.261 1.96799 133.059 1.96799V-0.0320053C128 -0.0320053 123.546 0.954053 119.729 2.96308L120.66 4.73292ZM133.059 1.96799C138.842 1.96799 143.325 3.80306 146.626 7.40372L148.1 6.05227C144.361 1.97293 139.307 -0.0320053 133.059 -0.0320053V1.96799ZM148.241 7.20551L150.641 2.78951L148.884 1.83448L146.484 6.25048L148.241 7.20551ZM149.763 3.31199H163.203V1.31199H149.763V3.31199ZM162.203 2.31199V24.68H164.203V2.31199H162.203ZM163.203 23.68H148.803V25.68H163.203V23.68ZM149.705 24.2493C148.323 21.3539 146.719 19.2171 144.838 17.987L143.744 19.661C145.19 20.6069 146.594 22.3741 147.9 25.1107L149.705 24.2493ZM144.853 17.9971C143.028 16.7557 140.596 16.192 137.667 16.192V18.192C140.369 18.192 142.354 18.7163 143.728 19.6509L144.853 17.9971ZM137.667 16.192C135.392 16.192 133.483 16.5903 132.045 17.4985L133.113 19.1895C134.107 18.5617 135.59 18.192 137.667 18.192V16.192ZM132.024 17.5119C130.604 18.4587 129.851 19.8217 129.851 21.512H131.851C131.851 20.5143 132.25 19.7653 133.133 19.1761L132.024 17.5119ZM129.851 21.512C129.851 23.4688 131.003 24.9143 132.9 25.8624L133.794 24.0736C132.362 23.3577 131.851 22.4992 131.851 21.512H129.851ZM132.941 25.8818C134.756 26.6887 137.261 27.4418 140.424 28.1517L140.862 26.2003C137.752 25.5022 135.393 24.7833 133.753 24.0542L132.941 25.8818ZM140.419 28.1506C145.933 29.4183 150.557 30.9954 154.308 32.8704L155.202 31.0816C151.272 29.1166 146.488 27.4937 140.867 26.2014L140.419 28.1506ZM154.325 32.8791C158.068 34.6586 161.029 37.2257 163.23 40.5877L164.903 39.4923C162.496 35.8143 159.249 33.0054 155.184 31.0729L154.325 32.8791ZM163.242 40.6052C165.465 43.8497 166.619 48.1152 166.619 53.48H168.619C168.619 47.8368 167.405 43.1422 164.892 39.4748L163.242 40.6052ZM166.619 53.48C166.619 58.0057 165.659 62.0677 163.758 65.6869L165.528 66.6171C167.594 62.6843 168.619 58.2983 168.619 53.48H166.619ZM163.751 65.6988C161.917 69.306 159.265 72.1416 155.778 74.2212L156.803 75.9388C160.613 73.6664 163.528 70.55 165.534 66.6052L163.751 65.6988ZM155.772 74.2252C152.362 76.2957 148.417 77.344 143.907 77.344V79.344C148.74 79.344 153.052 78.2163 156.81 75.9348L155.772 74.2252ZM191.381 73.352L190.872 74.2129L190.877 74.2154L191.381 73.352ZM178.517 59.624L177.623 60.0712L177.625 60.0751L178.517 59.624ZM178.517 19.208L177.625 18.7569L177.625 18.7569L178.517 19.208ZM191.381 5.768L191.868 6.64172L191.875 6.63745L191.381 5.768ZM231.893 5.768L231.399 6.63748L231.407 6.64168L231.893 5.768ZM244.757 19.208L245.649 18.7569L245.649 18.7569L244.757 19.208ZM244.757 59.624L245.649 60.0751L245.651 60.0712L244.757 59.624ZM231.797 73.352L231.293 72.4886L231.288 72.4911L231.797 73.352ZM219.509 23.432L218.595 23.8368L218.597 23.8424L219.509 23.432ZM203.765 23.432L204.677 23.8424L204.679 23.8367L203.765 23.432ZM211.637 77.344C203.974 77.344 197.402 75.7119 191.885 72.4886L190.877 74.2154C196.752 77.6481 203.684 79.344 211.637 79.344V77.344ZM191.89 72.4911C186.422 69.26 182.267 64.826 179.409 59.1729L177.625 60.0751C180.655 66.07 185.076 70.788 190.872 74.2129L191.89 72.4911ZM179.411 59.1768C176.546 53.4456 175.101 46.9142 175.101 39.56H173.101C173.101 47.1818 174.6 54.0264 177.623 60.0712L179.411 59.1768ZM175.101 39.56C175.101 31.9436 176.548 25.3194 179.409 19.6591L177.625 18.7569C174.598 24.7446 173.101 31.6883 173.101 39.56H175.101ZM179.409 19.6591C182.265 14.011 186.412 9.67926 191.867 6.64168L190.895 4.89431C185.086 8.12873 180.657 12.757 177.625 18.7569L179.409 19.6591ZM191.875 6.63745C197.327 3.53965 203.901 1.96799 211.637 1.96799V-0.0320053C203.629 -0.0320053 196.699 1.59634 190.887 4.89854L191.875 6.63745ZM211.637 1.96799C219.373 1.96799 225.947 3.53965 231.399 6.63745L232.387 4.89854C226.575 1.59634 219.645 -0.0320053 211.637 -0.0320053V1.96799ZM231.407 6.64168C236.862 9.67926 241.009 14.011 243.865 19.6591L245.649 18.7569C242.617 12.757 238.188 8.12873 232.379 4.89431L231.407 6.64168ZM243.865 19.6591C246.726 25.3194 248.173 31.9436 248.173 39.56H250.173C250.173 31.6883 248.676 24.7446 245.649 18.7569L243.865 19.6591ZM248.173 39.56C248.173 46.9142 246.728 53.4456 243.863 59.1768L245.651 60.0712C248.674 54.0264 250.173 47.1818 250.173 39.56H248.173ZM243.865 59.1729C241.008 64.823 236.824 69.2566 231.293 72.4886L232.301 74.2154C238.162 70.7914 242.618 66.073 245.649 60.0751L243.865 59.1729ZM231.288 72.4911C225.838 75.7118 219.301 77.344 211.637 77.344V79.344C219.589 79.344 226.492 77.6482 232.306 74.2129L231.288 72.4911ZM211.637 62.736C213.551 62.736 215.267 62.1521 216.745 60.9846C218.207 59.8294 219.39 58.1404 220.329 55.9928L218.497 55.1912C217.644 57.1396 216.635 58.5226 215.505 59.4154C214.391 60.2959 213.115 60.736 211.637 60.736V62.736ZM220.329 55.9928C222.198 51.7214 223.101 46.0959 223.101 39.176H221.101C221.101 45.9521 220.212 51.2706 218.497 55.1912L220.329 55.9928ZM223.101 39.176C223.101 32.4517 222.231 27.0439 220.421 23.0216L218.597 23.8424C220.243 27.5001 221.101 32.5883 221.101 39.176H223.101ZM220.423 23.0273C219.51 20.9644 218.328 19.3434 216.842 18.2377C215.344 17.1233 213.595 16.576 211.637 16.576V18.576C213.199 18.576 214.522 19.0047 215.648 19.8423C216.786 20.6886 217.78 21.9956 218.595 23.8367L220.423 23.0273ZM211.637 16.576C209.679 16.576 207.93 17.1233 206.432 18.2377C204.946 19.3434 203.764 20.9644 202.851 23.0273L204.679 23.8367C205.494 21.9956 206.488 20.6886 207.626 19.8423C208.752 19.0047 210.075 18.576 211.637 18.576V16.576ZM202.853 23.0216C201.043 27.0439 200.173 32.4517 200.173 39.176H202.173C202.173 32.5883 203.031 27.5001 204.677 23.8424L202.853 23.0216ZM200.173 39.176C200.173 46.0959 201.076 51.7214 202.945 55.9928L204.777 55.1912C203.062 51.2706 202.173 45.9521 202.173 39.176H200.173ZM202.945 55.9928C203.884 58.1404 205.067 59.8294 206.529 60.9846C208.007 62.1521 209.723 62.736 211.637 62.736V60.736C210.159 60.736 208.883 60.2959 207.769 59.4154C206.639 58.5226 205.63 57.1396 204.777 55.1912L202.945 55.9928ZM260.611 60.488V59.488H259.611V60.488H260.611ZM268.099 60.488V61.488H269.099V60.488H268.099ZM268.099 18.92H269.099V17.92H268.099V18.92ZM260.611 18.92H259.611V19.92H260.611V18.92ZM260.611 2.408V1.408H259.611V2.408H260.611ZM325.603 7.112L326.254 6.35368L326.254 6.35368L325.603 7.112ZM326.947 33.896L326.256 33.1722L326.248 33.1804L326.947 33.896ZM315.427 39.176L315.25 38.1917L315.271 40.1639L315.427 39.176ZM325.123 44.264L324.318 44.8579L324.325 44.8671L325.123 44.264ZM328.099 60.2H327.099V61.2H328.099V60.2ZM338.563 60.2H339.563V59.2H338.563V60.2ZM338.563 77V78H339.563V77H338.563ZM308.131 70.76L307.195 71.1134L307.198 71.1224L307.202 71.1314L308.131 70.76ZM304.579 47.816L303.742 48.364L303.749 48.374L303.755 48.3837L304.579 47.816ZM292.099 45.032V44.032H291.099V45.032H292.099ZM292.099 60.488H291.099V61.488H292.099V60.488ZM299.587 60.488H300.587V59.488H299.587V60.488ZM299.587 77V78H300.587V77H299.587ZM260.611 77H259.611V78H260.611V77ZM306.115 32.552L305.524 31.7446L305.524 31.7446L306.115 32.552ZM306.019 20.84L305.409 21.6326L305.416 21.6382L305.423 21.6436L306.019 20.84ZM292.099 18.92V17.92H291.099V18.92H292.099ZM292.099 34.376H291.099V35.376H292.099V34.376ZM260.611 61.488H268.099V59.488H260.611V61.488ZM269.099 60.488V18.92H267.099V60.488H269.099ZM268.099 17.92H260.611V19.92H268.099V17.92ZM261.611 18.92V2.408H259.611V18.92H261.611ZM260.611 3.408H308.515V1.408H260.611V3.408ZM308.515 3.408C316.156 3.408 321.566 4.96092 324.951 7.87031L326.254 6.35368C322.343 2.99107 316.361 1.408 308.515 1.408V3.408ZM324.951 7.87031C328.286 10.7373 330.075 15.575 330.075 22.664H332.075C332.075 15.2889 330.215 9.75874 326.254 6.35368L324.951 7.87031ZM330.075 22.664C330.075 27.3351 328.759 30.7862 326.256 33.1723L327.637 34.6197C330.638 31.7578 332.075 27.7209 332.075 22.664H330.075ZM326.248 33.1804C323.745 35.6235 320.112 37.319 315.25 38.1917L315.603 40.1603C320.725 39.241 324.772 37.4165 327.645 34.6116L326.248 33.1804ZM315.271 40.1639C319.587 40.842 322.539 42.4481 324.318 44.8578L325.927 43.6701C323.738 40.7039 320.226 38.918 315.582 38.1881L315.271 40.1639ZM324.325 44.8671C326.152 47.2839 327.099 50.3556 327.099 54.152H329.099C329.099 50.0124 328.061 46.4921 325.92 43.6609L324.325 44.8671ZM327.099 54.152V60.2H329.099V54.152H327.099ZM328.099 61.2H338.563V59.2H328.099V61.2ZM337.563 60.2V77H339.563V60.2H337.563ZM338.563 76H323.491V78H338.563V76ZM323.491 76C318.636 76 315.276 75.6768 313.317 75.083L312.736 76.997C315.001 77.6832 318.617 78 323.491 78V76ZM313.317 75.083C311.6 74.5628 310.146 73.1068 309.059 70.3886L307.202 71.1314C308.419 74.1732 310.229 76.2372 312.736 76.997L313.317 75.083ZM309.066 70.4066C308.047 67.7094 307.499 63.0681 307.499 56.36H305.499C305.499 63.0919 306.038 68.0506 307.195 71.1134L309.066 70.4066ZM307.499 56.36C307.499 52.4446 306.853 49.352 305.402 47.2483L303.755 48.3837C304.864 49.992 305.499 52.5954 305.499 56.36H307.499ZM305.415 47.268C303.934 45.0073 301.249 44.032 297.763 44.032V46.032C300.932 46.032 302.791 46.9127 303.742 48.364L305.415 47.268ZM297.763 44.032H292.099V46.032H297.763V44.032ZM291.099 45.032V60.488H293.099V45.032H291.099ZM292.099 61.488H299.587V59.488H292.099V61.488ZM298.587 60.488V77H300.587V60.488H298.587ZM299.587 76H260.611V78H299.587V76ZM261.611 77V60.488H259.611V77H261.611ZM298.531 35.376C302.01 35.376 304.79 34.7583 306.705 33.3594L305.524 31.7446C304.111 32.7777 301.835 33.376 298.531 33.376V35.376ZM306.705 33.3594C308.735 31.8759 309.611 29.3477 309.611 26.12H307.611C307.611 29.0363 306.822 30.7961 305.524 31.7446L306.705 33.3594ZM309.611 26.12C309.611 23.5786 308.609 21.5141 306.614 20.0364L305.423 21.6436C306.884 22.7259 307.611 24.1814 307.611 26.12H309.611ZM306.628 20.0474C304.746 18.5992 302.337 17.92 299.491 17.92V19.92C302.02 19.92 303.963 20.5208 305.409 21.6326L306.628 20.0474ZM299.491 17.92H292.099V19.92H299.491V17.92ZM291.099 18.92V34.376H293.099V18.92H291.099ZM292.099 35.376H298.531V33.376H292.099V35.376ZM355.088 77H354.088V78H355.088V77ZM355.088 60.104V59.104H354.088V60.104H355.088ZM362.768 60.104V61.104H363.768V60.104H362.768ZM362.768 18.92H363.768V17.92H362.768V18.92ZM356.144 18.92V17.92H355.289L355.156 18.7652L356.144 18.92ZM354.128 31.784V32.784H354.983L355.116 31.9388L354.128 31.784ZM340.976 31.784H339.976V32.784H340.976V31.784ZM340.976 2.408V1.408H339.976V2.408H340.976ZM411.152 2.408H412.152V1.408H411.152V2.408ZM411.152 31.784V32.784H412.152V31.784H411.152ZM398 31.784L397.012 31.9388L397.145 32.784H398V31.784ZM395.984 18.92L396.972 18.7652L396.839 17.92H395.984V18.92ZM389.168 18.92V17.92H388.168V18.92H389.168ZM389.168 60.104H388.168V61.104H389.168V60.104ZM396.848 60.104H397.848V59.104H396.848V60.104ZM396.848 77V78H397.848V77H396.848ZM356.088 77V60.104H354.088V77H356.088ZM355.088 61.104H362.768V59.104H355.088V61.104ZM363.768 60.104V18.92H361.768V60.104H363.768ZM362.768 17.92H356.144V19.92H362.768V17.92ZM355.156 18.7652L353.14 31.6292L355.116 31.9388L357.132 19.0748L355.156 18.7652ZM354.128 30.784H340.976V32.784H354.128V30.784ZM341.976 31.784V2.408H339.976V31.784H341.976ZM340.976 3.408H411.152V1.408H340.976V3.408ZM410.152 2.408V31.784H412.152V2.408H410.152ZM411.152 30.784H398V32.784H411.152V30.784ZM398.988 31.6292L396.972 18.7652L394.996 19.0748L397.012 31.9388L398.988 31.6292ZM395.984 17.92H389.168V19.92H395.984V17.92ZM388.168 18.92V60.104H390.168V18.92H388.168ZM389.168 61.104H396.848V59.104H389.168V61.104ZM395.848 60.104V77H397.848V60.104H395.848ZM396.848 76H355.088V78H396.848V76ZM431.488 69.608L430.72 70.249L430.724 70.2539L431.488 69.608ZM424.192 18.92H425.192V17.92H424.192V18.92ZM416.608 18.92H415.608V19.92H416.608V18.92ZM416.608 2.408V1.408H415.608V2.408H416.608ZM457.312 2.408H458.312V1.408H457.312V2.408ZM457.312 18.92V19.92H458.312V18.92H457.312ZM450.4 18.92V17.92H449.4V18.92H450.4ZM452.608 57.896L451.804 58.4918L451.815 58.5065L451.827 58.5207L452.608 57.896ZM466.048 58.376L465.34 57.6689L465.333 57.6761L465.326 57.6835L466.048 58.376ZM468.448 18.92H469.448V17.92H468.448V18.92ZM460.768 18.92H459.768V19.92H460.768V18.92ZM460.768 2.408V1.408H459.768V2.408H460.768ZM491.392 2.408H492.392V1.408H491.392V2.408ZM491.392 18.92V19.92H492.392V18.92H491.392ZM484.192 18.92V17.92H483.192V18.92H484.192ZM476.32 71.528L476.974 72.284L476.979 72.2794L476.32 71.528ZM455.584 77.344C444.603 77.344 436.915 74.4737 432.251 68.9621L430.724 70.2539C435.916 76.3903 444.292 79.344 455.584 79.344V77.344ZM432.255 68.967C427.599 63.3921 425.192 55.1155 425.192 43.976H423.192C423.192 55.3645 425.648 64.1759 430.72 70.249L432.255 68.967ZM425.192 43.976V18.92H423.192V43.976H425.192ZM424.192 17.92H416.608V19.92H424.192V17.92ZM417.608 18.92V2.408H415.608V18.92H417.608ZM416.608 3.408H457.312V1.408H416.608V3.408ZM456.312 2.408V18.92H458.312V2.408H456.312ZM457.312 17.92H450.4V19.92H457.312V17.92ZM449.4 18.92V50.312H451.4V18.92H449.4ZM449.4 50.312C449.4 53.5455 450.176 56.2973 451.804 58.4918L453.411 57.3002C452.095 55.5267 451.4 53.2225 451.4 50.312H449.4ZM451.827 58.5207C453.607 60.7457 456.307 61.776 459.712 61.776V59.776C456.716 59.776 454.68 58.8863 453.388 57.2713L451.827 58.5207ZM459.712 61.776C462.61 61.776 465.005 60.9056 466.769 59.0685L465.326 57.6835C464.018 59.0464 462.189 59.776 459.712 59.776V61.776ZM466.755 59.0831C468.581 57.2564 469.448 54.8041 469.448 51.848H467.448C467.448 54.3959 466.714 56.2956 465.34 57.6689L466.755 59.0831ZM469.448 51.848V18.92H467.448V51.848H469.448ZM468.448 17.92H460.768V19.92H468.448V17.92ZM461.768 18.92V2.408H459.768V18.92H461.768ZM460.768 3.408H491.392V1.408H460.768V3.408ZM490.392 2.408V18.92H492.392V2.408H490.392ZM491.392 17.92H484.192V19.92H491.392V17.92ZM483.192 18.92V51.176H485.192V18.92H483.192ZM483.192 51.176C483.192 59.9353 480.634 66.4092 475.66 70.7766L476.979 72.2794C482.501 67.4308 485.192 60.3367 485.192 51.176H483.192ZM475.665 70.772C470.639 75.124 463.978 77.344 455.584 77.344V79.344C464.341 79.344 471.504 77.02 476.974 72.284L475.665 70.772ZM496.976 60.488V59.488H495.976V60.488H496.976ZM504.464 60.488V61.488H505.464V60.488H504.464ZM504.464 18.92H505.464V17.92H504.464V18.92ZM496.976 18.92H495.976V19.92H496.976V18.92ZM496.976 2.408V1.408H495.976V2.408H496.976ZM562.64 11.816L561.981 12.5686L561.985 12.5715L562.64 11.816ZM562.736 67.304L562.066 66.5614L562.066 66.5614L562.736 67.304ZM496.976 77H495.976V78H496.976V77ZM542.864 54.632L542.011 54.1094L542.009 54.1134L542.864 54.632ZM542.96 24.68L543.811 24.1551L543.811 24.1551L542.96 24.68ZM528.464 18.92V17.92H527.464V18.92H528.464ZM528.464 60.488H527.464V61.488H528.464V60.488ZM496.976 61.488H504.464V59.488H496.976V61.488ZM505.464 60.488V18.92H503.464V60.488H505.464ZM504.464 17.92H496.976V19.92H504.464V17.92ZM497.976 18.92V2.408H495.976V18.92H497.976ZM496.976 3.408H531.536V1.408H496.976V3.408ZM531.536 3.408C544.963 3.408 555.06 6.51227 561.981 12.5686L563.299 11.0634C555.884 4.57573 545.245 1.408 531.536 1.408V3.408ZM561.985 12.5715C568.939 18.6026 572.488 27.5698 572.488 39.656H574.488C574.488 27.1662 570.805 17.5734 563.295 11.0605L561.985 12.5715ZM572.488 39.656C572.488 51.414 568.975 60.331 562.066 66.5614L563.406 68.0466C570.833 61.349 574.488 51.834 574.488 39.656H572.488ZM562.066 66.5614C555.146 72.8017 544.992 76 531.44 76V78C545.28 78 555.99 74.7343 563.406 68.0466L562.066 66.5614ZM531.44 76H496.976V78H531.44V76ZM497.976 77V60.488H495.976V77H497.976ZM531.44 61.488C536.976 61.488 541.14 59.4028 543.719 55.1506L542.009 54.1134C539.852 57.6691 536.4 59.488 531.44 59.488V61.488ZM543.717 55.1546C546.269 50.9895 547.512 45.8034 547.512 39.656H545.512C545.512 45.5406 544.323 50.3385 542.011 54.1094L543.717 55.1546ZM547.512 39.656C547.512 33.3914 546.306 28.2002 543.811 24.1551L542.109 25.2049C544.35 28.8398 545.512 33.6326 545.512 39.656H547.512ZM543.811 24.1551C541.226 19.9632 537.027 17.92 531.44 17.92V19.92C536.477 19.92 539.958 21.7168 542.109 25.2049L543.811 24.1551ZM531.44 17.92H528.464V19.92H531.44V17.92ZM527.464 18.92V60.488H529.464V18.92H527.464ZM528.464 61.488H531.44V59.488H528.464V61.488ZM598.819 73.352L598.31 74.2129L598.314 74.2154L598.819 73.352ZM585.955 59.624L585.06 60.0712L585.062 60.0751L585.955 59.624ZM585.955 19.208L585.062 18.7569L585.062 18.7569L585.955 19.208ZM598.819 5.768L599.305 6.64172L599.313 6.63745L598.819 5.768ZM639.331 5.768L638.836 6.63748L638.844 6.64168L639.331 5.768ZM652.195 19.208L653.087 18.7569L653.087 18.7569L652.195 19.208ZM652.195 59.624L653.087 60.0751L653.089 60.0712L652.195 59.624ZM639.235 73.352L638.73 72.4886L638.726 72.4911L639.235 73.352ZM626.947 23.432L626.032 23.8368L626.035 23.8424L626.947 23.432ZM611.203 23.432L612.114 23.8424L612.117 23.8367L611.203 23.432ZM619.075 77.344C611.411 77.344 604.84 75.7119 599.323 72.4886L598.314 74.2154C604.189 77.6481 611.122 79.344 619.075 79.344V77.344ZM599.327 72.4911C593.859 69.26 589.705 64.826 586.847 59.1729L585.062 60.0751C588.092 66.07 592.514 70.788 598.31 74.2129L599.327 72.4911ZM586.849 59.1768C583.983 53.4456 582.539 46.9142 582.539 39.56H580.539C580.539 47.1818 582.038 54.0264 585.06 60.0712L586.849 59.1768ZM582.539 39.56C582.539 31.9436 583.986 25.3194 586.847 19.6591L585.062 18.7569C582.035 24.7446 580.539 31.6883 580.539 39.56H582.539ZM586.847 19.6591C589.702 14.011 593.85 9.67926 599.305 6.64168L598.332 4.89431C592.523 8.12873 588.095 12.757 585.062 18.7569L586.847 19.6591ZM599.313 6.63745C604.765 3.53965 611.339 1.96799 619.075 1.96799V-0.0320053C611.066 -0.0320053 604.136 1.59634 598.324 4.89854L599.313 6.63745ZM619.075 1.96799C626.81 1.96799 633.384 3.53965 638.836 6.63745L639.825 4.89854C634.013 1.59634 627.083 -0.0320053 619.075 -0.0320053V1.96799ZM638.844 6.64168C644.299 9.67926 648.447 14.011 651.302 19.6591L653.087 18.7569C650.054 12.757 645.626 8.12873 639.817 4.89431L638.844 6.64168ZM651.302 19.6591C654.163 25.3194 655.611 31.9436 655.611 39.56H657.611C657.611 31.6883 656.114 24.7446 653.087 18.7569L651.302 19.6591ZM655.611 39.56C655.611 46.9142 654.166 53.4456 651.3 59.1768L653.089 60.0712C656.111 54.0264 657.611 47.1818 657.611 39.56H655.611ZM651.302 59.1729C648.446 64.823 644.262 69.2566 638.73 72.4886L639.739 74.2154C645.599 70.7914 650.055 66.073 653.087 60.0751L651.302 59.1729ZM638.726 72.4911C633.275 75.7118 626.738 77.344 619.075 77.344V79.344C627.027 79.344 633.93 77.6482 639.743 74.2129L638.726 72.4911ZM619.075 62.736C620.989 62.736 622.705 62.1521 624.182 60.9846C625.645 59.8294 626.827 58.1404 627.767 55.9928L625.934 55.1912C625.082 57.1396 624.072 58.5226 622.943 59.4154C621.828 60.2959 620.552 60.736 619.075 60.736V62.736ZM627.767 55.9928C629.635 51.7214 630.539 46.0959 630.539 39.176H628.539C628.539 45.9521 627.65 51.2706 625.934 55.1912L627.767 55.9928ZM630.539 39.176C630.539 32.4517 629.668 27.0439 627.858 23.0216L626.035 23.8424C627.681 27.5001 628.539 32.5883 628.539 39.176H630.539ZM627.861 23.0273C626.948 20.9644 625.766 19.3434 624.279 18.2377C622.781 17.1233 621.032 16.576 619.075 16.576V18.576C620.637 18.576 621.96 19.0047 623.086 19.8423C624.223 20.6886 625.217 21.9956 626.032 23.8367L627.861 23.0273ZM619.075 16.576C617.117 16.576 615.368 17.1233 613.87 18.2377C612.383 19.3434 611.201 20.9644 610.288 23.0273L612.117 23.8367C612.932 21.9956 613.926 20.6886 615.063 19.8423C616.189 19.0047 617.512 18.576 619.075 18.576V16.576ZM610.291 23.0216C608.481 27.0439 607.611 32.4517 607.611 39.176H609.611C609.611 32.5883 610.468 27.5001 612.114 23.8424L610.291 23.0216ZM607.611 39.176C607.611 46.0959 608.514 51.7214 610.382 55.9928L612.215 55.1912C610.499 51.2706 609.611 45.9521 609.611 39.176H607.611ZM610.382 55.9928C611.322 58.1404 612.504 59.8294 613.967 60.9846C615.444 62.1521 617.16 62.736 619.075 62.736V60.736C617.597 60.736 616.321 60.2959 615.206 59.4154C614.077 58.5226 613.067 57.1396 612.215 55.1912L610.382 55.9928Z" fill="#70FB97"/>
</g>
<defs>
<filter id="filter0_dd_11_53" x="0.976074" y="0.967773" width="659.634" height="85.3765" filterUnits="userSpaceOnUse" color-interpolation-filters="sRGB">
<feFlood flood-opacity="0" result="BackgroundImageFix"/>
<feColorMatrix in="SourceAlpha" type="matrix" values="0 0 0 0 0 0 0 0 0 0 0 0 0 0 0 0 0 0 127 0" result="hardAlpha"/>
<feOffset dy="4"/>
<feGaussianBlur stdDeviation="2"/>
<feComposite in2="hardAlpha" operator="out"/>
<feColorMatrix type="matrix" values="0 0 0 0 0 0 0 0 0 0 0 0 0 0 0 0 0 0 0.25 0"/>
<feBlend mode="normal" in2="BackgroundImageFix" result="effect1_dropShadow_11_53"/>
<feColorMatrix in="SourceAlpha" type="matrix" values="0 0 0 0 0 0 0 0 0 0 0 0 0 0 0 0 0 0 127 0" result="hardAlpha"/>
<feOffset dy="4"/>
<feGaussianBlur stdDeviation="2"/>
<feComposite in2="hardAlpha" operator="out"/>
<feColorMatrix type="matrix" values="0 0 0 0 0 0 0 0 0 0 0 0 0 0 0 0 0 0 0.25 0"/>
<feBlend mode="normal" in2="effect1_dropShadow_11_53" result="effect2_dropShadow_11_53"/>
<feBlend mode="normal" in="SourceGraphic" in2="effect2_dropShadow_11_53" result="shape"/>
</filter>
</defs>
</svg>
